<?xml version="1.0" encoding="utf-8"?>
<!-- Generator: Adobe Illustrator 28.0.0, SVG Export Plug-In . SVG Version: 6.00 Build 0)  -->
<svg version="1.1" id="Layer_1" xmlns="http://www.w3.org/2000/svg" xmlns:xlink="http://www.w3.org/1999/xlink" x="0px" y="0px"
	 viewBox="0 0 512 512" style="enable-background:new 0 0 512 512;" xml:space="preserve">
<style type="text/css">
	.st0{fill:url(#_23.Question_00000089573653402635152300000001138716935472213670_);}
</style>
<g id="Layer_2_00000083070278163435756640000009042205499463211423_">
	<g id="InterfaceIcon">
		
			<linearGradient id="_23.Question_00000163792233948579239910000013611171095142415029_" gradientUnits="userSpaceOnUse" x1="74.9812" y1="439.0188" x2="512" y2="2" gradientTransform="matrix(1 0 0 -1 0 514)">
			<stop  offset="2.983562e-07" style="stop-color:#FFC56A"/>
			<stop  offset="1" style="stop-color:#FF5C00"/>
		</linearGradient>
		<path id="_23.Question" style="fill:url(#_23.Question_00000163792233948579239910000013611171095142415029_);" d="M256.8,0
			C114.8-0.4-0.4,114.8,0,256.8C0.4,397.1,117.5,512,257.9,512H512V257.9C512,117.5,397.1,0.4,256.8,0L256.8,0z M278.8,386.4
			c-6.7,5.9-15,8.9-25,8.9c-10,0-18.3-3-25-8.9c-6.7-5.9-10-13.5-10-22.8c0-9.2,3.3-16.8,10-22.7c6.7-5.9,15-8.9,25-8.9
			c10,0,18.3,3,25,8.9c6.7,5.9,10,13.5,10,22.7S285.4,380.4,278.8,386.4L278.8,386.4z M338,219.1c-4.1,8.5-10.7,17.2-19.8,26
			l-21.5,20c-6.1,5.9-10.4,11.9-12.7,18.1c-2.4,6.2-3.7,14-3.9,23.5h-53.6c0-18.2,2.1-32.6,6.2-43.1c4.2-10.7,11.1-20.1,20-27.4
			c9.2-7.7,16.3-14.8,21.1-21.2c4.7-6.1,7.2-13.6,7.2-21.2c0-18.8-8.1-28.3-24.3-28.3c-7-0.2-13.7,2.8-18.1,8.2
			c-4.6,5.5-7.1,12.9-7.3,22.3h-63.2c0.3-25,8.1-44.4,23.6-58.3c15.5-13.9,37.2-20.9,65.1-20.9c27.8,0,49.4,6.4,64.7,19.3
			s22.9,31.1,22.9,54.8C344.3,200.6,342.2,210.3,338,219.1L338,219.1z"/>
	</g>
</g>
</svg>
